<svg width="20" height="24" viewBox="0 0 20 24" fill="none" xmlns="http://www.w3.org/2000/svg">
<path d="M19 10.1467C19 17.1467 10 23.1467 10 23.1467C10 23.1467 1 17.1467 1 10.1467C1 7.75972 1.94821 5.47053 3.63604 3.78271C5.32387 2.09488 7.61305 1.14667 10 1.14667C12.3869 1.14667 14.6761 2.09488 16.364 3.78271C18.0518 5.47053 19 7.75972 19 10.1467Z" stroke="#090A0A" stroke-width="1.5" stroke-linecap="round" stroke-linejoin="round"/>
<path d="M10 13.1467C11.6569 13.1467 13 11.8035 13 10.1467C13 8.48981 11.6569 7.14667 10 7.14667C8.34315 7.14667 7 8.48981 7 10.1467C7 11.8035 8.34315 13.1467 10 13.1467Z" stroke="#090A0A" stroke-width="1.5" stroke-linecap="round" stroke-linejoin="round"/>
</svg>
